# Blender 5.0.1
# www.blender.org
mtllib R6Torso.mtl
o Torso
v -0.982619 0.935000 0.479286
v -0.982619 -0.935000 0.479286
v 0.887381 -0.935000 0.479286
v 0.887381 0.935000 0.479286
v -0.982619 1.000000 0.414286
v -1.047619 0.935000 0.414286
v -1.047619 -0.935000 0.414286
v -0.982619 -1.000000 0.414286
v 0.887381 -1.000000 0.414286
v 0.952381 -0.935000 0.414286
v 0.952381 0.935000 0.414286
v 0.887381 1.000000 0.414286
v -0.982619 1.000000 0.414286
v -0.982619 1.000000 -0.455714
v -1.047619 0.935000 -0.455714
v -1.047619 -0.935000 -0.455714
v -0.982619 -1.000000 -0.455714
v -0.982619 -1.000000 0.414286
v -0.982619 -1.000000 0.414286
v -0.982619 -1.000000 -0.455714
v 0.887381 -1.000000 -0.455714
v 0.887381 -1.000000 0.414286
v 0.887381 -1.000000 0.414286
v 0.887381 -1.000000 -0.455714
v 0.952381 -0.935000 -0.455714
v 0.952381 -0.935000 0.414286
v 0.952381 0.935000 -0.455714
v 0.952381 0.935000 0.414286
v 0.887381 1.000000 -0.455714
v 0.887381 1.000000 0.414286
v 0.887381 1.000000 0.414286
v 0.887381 1.000000 -0.455714
v -0.982619 1.000000 -0.455714
v -0.982619 1.000000 0.414286
v -0.982619 1.000000 -0.455714
v -0.982619 0.935000 -0.520714
v -0.982619 -0.935000 -0.520714
v -0.982619 -1.000000 -0.455714
v 0.887381 -0.935000 -0.520714
v 0.887381 -1.000000 -0.455714
v 0.887381 0.935000 -0.520714
v 0.887381 1.000000 -0.455714
vn -0.0000 -0.0000 1.0000
vn -0.0000 1.0000 -0.0000
vn -1.0000 -0.0000 -0.0000
vn -0.0000 -1.0000 -0.0000
vn 1.0000 -0.0000 -0.0000
vn -0.0000 -0.0000 -1.0000
s 1
usemtl R64Mtl
f 1//1 2//1 3//1
f 1//1 3//1 4//1
f 1//1 5//2 6//3
f 1//1 6//3 7//3
f 1//1 7//3 2//1
f 2//1 7//3 8//4
f 2//1 8//4 9//4
f 2//1 9//4 3//1
f 3//1 9//4 10//5
f 3//1 10//5 11//5
f 3//1 11//5 4//1
f 4//1 11//5 12//2
f 4//1 12//2 5//2
f 4//1 5//2 1//1
f 13//2 14//2 15//3
f 13//2 15//3 6//3
f 6//3 15//3 16//3
f 6//3 16//3 7//3
f 7//3 16//3 17//4
f 7//3 17//4 18//4
f 19//4 20//4 21//4
f 19//4 21//4 22//4
f 23//4 24//4 25//5
f 23//4 25//5 26//5
f 26//5 25//5 27//5
f 26//5 27//5 28//5
f 28//5 27//5 29//2
f 28//5 29//2 30//2
f 31//2 32//2 33//2
f 31//2 33//2 34//2
f 35//2 36//6 15//3
f 15//3 36//6 37//6
f 15//3 37//6 16//3
f 16//3 37//6 38//4
f 38//4 37//6 39//6
f 38//4 39//6 40//4
f 40//4 39//6 25//5
f 25//5 39//6 41//6
f 25//5 41//6 27//5
f 27//5 41//6 42//2
f 42//2 41//6 36//6
f 42//2 36//6 35//2
f 41//6 39//6 37//6
f 41//6 37//6 36//6
