# Blender 5.0.1
# www.blender.org
mtllib R6Right Leg.mtl
o Right_Leg
v -0.411191 0.935000 0.479286
v -0.411191 -0.935000 0.479286
v 0.458809 -0.935000 0.479286
v 0.458809 0.935000 0.479286
v -0.411191 1.000000 0.414286
v -0.476191 0.935000 0.414286
v -0.476191 -0.935000 0.414286
v -0.411191 -1.000000 0.414286
v 0.458809 -1.000000 0.414286
v 0.523809 -0.935000 0.414286
v 0.523809 0.935000 0.414286
v 0.458809 1.000000 0.414286
v -0.411191 1.000000 0.414286
v -0.411191 1.000000 -0.455714
v -0.476191 0.935000 -0.455714
v -0.476191 0.935000 0.414286
v -0.476191 -0.935000 -0.455714
v -0.476191 -0.935000 0.414286
v -0.411191 -1.000000 -0.455714
v -0.411191 -1.000000 0.414286
v -0.411191 -1.000000 0.414286
v -0.411191 -1.000000 -0.455714
v 0.458809 -1.000000 -0.455714
v 0.458809 -1.000000 0.414286
v 0.458809 -1.000000 0.414286
v 0.458809 -1.000000 -0.455714
v 0.523809 -0.935000 -0.455714
v 0.523809 0.935000 -0.455714
v 0.458809 1.000000 -0.455714
v 0.458809 1.000000 0.414286
v 0.458809 1.000000 0.414286
v 0.458809 1.000000 -0.455714
v -0.411191 1.000000 -0.455714
v -0.411191 1.000000 0.414286
v -0.411191 1.000000 -0.455714
v -0.411191 0.935000 -0.520714
v -0.411191 -0.935000 -0.520714
v -0.411191 -1.000000 -0.455714
v 0.458809 -0.935000 -0.520714
v 0.458809 -1.000000 -0.455714
v 0.458809 0.935000 -0.520714
v 0.458809 1.000000 -0.455714
vn -0.0000 -0.0000 1.0000
vn -0.0000 1.0000 -0.0000
vn -1.0000 -0.0000 -0.0000
vn -0.0000 -1.0000 -0.0000
vn 1.0000 -0.0000 -0.0000
vn -0.0000 1.0000 0.0003
vn -0.0000 -0.0000 -1.0000
vn -0.0000 0.0001 -1.0000
s 1
usemtl R64Mtl
f 1//1 2//1 3//1
f 1//1 3//1 4//1
f 1//1 5//2 6//3
f 1//1 6//3 7//3
f 1//1 7//3 2//1
f 2//1 7//3 8//4
f 2//1 8//4 9//4
f 2//1 9//4 3//1
f 3//1 9//4 10//5
f 3//1 10//5 11//5
f 3//1 11//5 4//1
f 4//1 11//5 12//2
f 4//1 12//2 5//2
f 4//1 5//2 1//1
f 13//2 14//6 15//3
f 13//2 15//3 16//3
f 16//3 15//3 17//3
f 16//3 17//3 18//3
f 18//3 17//3 19//4
f 18//3 19//4 20//4
f 21//4 22//4 23//4
f 21//4 23//4 24//4
f 25//4 26//4 27//5
f 25//4 27//5 10//5
f 10//5 27//5 28//5
f 10//5 28//5 11//5
f 11//5 28//5 29//2
f 11//5 29//2 30//2
f 31//2 32//2 33//2
f 31//2 33//2 34//2
f 35//2 36//7 15//3
f 15//3 36//7 37//7
f 15//3 37//7 17//3
f 17//3 37//7 38//4
f 38//4 37//7 39//8
f 38//4 39//8 40//4
f 40//4 39//8 27//5
f 27//5 39//8 41//7
f 27//5 41//7 28//5
f 28//5 41//7 42//2
f 42//2 41//7 36//7
f 42//2 36//7 35//2
f 41//7 39//8 37//7
f 41//7 37//7 36//7
